<?xml version="1.0" standalone="no"?>
<!DOCTYPE svg PUBLIC "-//W3C//DTD SVG 20010904//EN"
 "http://www.w3.org/TR/2001/REC-SVG-20010904/DTD/svg10.dtd">
<svg version="1.0" xmlns="http://www.w3.org/2000/svg"
 width="1563.000000pt" height="1563.000000pt" viewBox="0 0 1563.000000 1563.000000"
 preserveAspectRatio="xMidYMid meet">

<g transform="translate(0.000000,1563.000000) scale(0.100000,-0.100000)"
fill="#ffffff" stroke="none">
<path d="M7355 15430 c-887 -63 -1696 -250 -2480 -575 -204 -84 -653 -306
-857 -424 -978 -564 -1836 -1351 -2472 -2270 -663 -958 -1094 -2038 -1270
-3181 -65 -425 -81 -654 -81 -1170 0 -476 10 -643 60 -1015 128 -949 429
-1853 898 -2695 551 -990 1347 -1873 2277 -2526 1070 -751 2313 -1216 3595
-1344 1038 -103 2037 -7 3020 290 806 244 1627 659 2305 1165 346 258 575 458
885 769 1091 1096 1820 2501 2089 4026 84 479 110 783 110 1325 1 439 -5 562
-45 905 -230 1983 -1241 3803 -2812 5063 -279 224 -690 504 -962 656 -661 370
-1222 599 -1905 775 -398 103 -761 164 -1250 212 -181 18 -919 27 -1105 14z
m905 -30 c723 -45 1395 -179 2050 -410 366 -129 637 -246 982 -422 887 -454
1674 -1082 2335 -1863 988 -1168 1606 -2639 1748 -4160 151 -1624 -194 -3180
-1018 -4590 -159 -273 -431 -664 -636 -915 -319 -392 -743 -816 -1131 -1131
-935 -761 -2081 -1301 -3265 -1539 -1061 -213 -2176 -198 -3225 45 -1725 399
-3258 1393 -4341 2815 -500 656 -890 1401 -1160 2210 -270 814 -392 1628 -376
2510 22 1177 281 2229 807 3280 721 1442 1924 2646 3360 3365 907 454 1805
707 2800 790 102 8 221 16 265 18 207 8 657 6 805 -3z"/>
<path d="M6025 14766 c-80 -19 -143 -54 -211 -118 -151 -142 -185 -293 -129
-568 14 -69 30 -156 36 -195 16 -109 11 -365 -9 -479 -20 -117 -32 -130 -129
-147 -77 -14 -134 -52 -164 -111 -19 -37 -21 -53 -16 -121 7 -90 3 -103 -58
-167 -63 -66 -64 -78 -16 -175 l42 -83 -21 -61 c-21 -60 -21 -60 -2 -103 11
-25 53 -76 101 -122 80 -77 81 -79 81 -127 0 -72 -26 -231 -55 -339 -67 -247
-68 -253 -56 -296 8 -31 32 -63 95 -127 64 -65 93 -103 121 -162 l37 -76 -6
-102 c-10 -156 -35 -386 -56 -535 -25 -164 -25 -216 -1 -267 30 -65 78 -96
174 -109 48 -7 49 -8 78 -74 17 -37 56 -123 88 -192 32 -69 64 -147 70 -174 6
-27 29 -74 51 -105 68 -97 102 -231 115 -451 8 -147 39 -219 118 -282 109 -86
207 -108 483 -108 l197 0 -6 -72 c-15 -193 -119 -337 -311 -432 -97 -48 -303
-96 -644 -151 -355 -57 -477 -82 -702 -145 -43 -12 -51 -11 -113 14 -91 36
-176 43 -252 21 -74 -21 -178 -73 -237 -118 l-45 -35 -54 19 c-107 37 -208 15
-354 -77 -158 -99 -191 -113 -313 -133 -79 -12 -121 -24 -142 -39 -23 -18 -57
-25 -174 -37 -348 -37 -700 -136 -1012 -285 -211 -101 -336 -185 -381 -259
-29 -45 -29 -88 -3 -296 67 -526 159 -974 305 -1480 117 -405 312 -944 365
-1007 27 -32 29 -33 61 -20 95 38 131 42 412 42 212 0 285 -3 310 -14 54 -22
112 -99 180 -239 88 -179 147 -349 201 -582 31 -129 78 -256 183 -485 74 -161
86 -195 94 -265 62 -564 453 -987 999 -1081 138 -24 361 -15 490 19 52 14 158
42 235 63 132 35 149 37 290 38 l150 0 215 -56 c310 -81 359 -85 635 -63 297
24 407 18 587 -29 189 -50 244 -49 402 6 155 54 202 55 380 5 153 -44 217 -46
392 -17 66 11 157 24 204 30 135 16 547 12 992 -11 227 -11 451 -18 498 -15
296 18 614 228 827 546 136 201 226 404 369 823 122 359 173 586 174 765 0 34
1 62 3 62 2 0 37 -12 78 -26 126 -43 231 -33 306 30 91 77 248 387 380 751 92
255 285 894 423 1397 l50 187 -14 69 c-37 177 -160 355 -341 493 -194 148
-471 313 -835 496 l-285 144 0 102 c0 120 -19 172 -79 225 -52 46 -74 52 -176
52 -104 0 -115 6 -183 109 -67 102 -76 107 -220 103 -139 -3 -132 -6 -199 83
-129 172 -275 244 -508 252 -108 4 -151 1 -315 -27 -155 -26 -206 -31 -280
-27 -172 11 -278 52 -361 139 -182 191 -291 448 -339 798 -17 125 -33 671 -21
733 9 48 53 98 125 142 104 62 178 161 196 257 3 18 9 83 14 143 10 149 31
192 159 333 182 201 206 252 200 435 -4 104 -2 117 11 111 126 -54 273 -41
392 34 56 36 81 69 118 162 37 90 51 105 115 126 82 26 96 48 96 152 0 95 3
104 71 179 52 57 58 97 25 169 -29 63 -31 89 -14 145 14 48 -1 105 -36 138
l-24 23 19 41 c37 82 21 169 -46 252 l-44 54 2 83 c1 82 1 84 -51 185 -38 75
-55 121 -63 175 -19 126 -62 198 -143 240 -52 26 -140 34 -190 15 l-40 -14
-20 41 c-28 55 -84 86 -157 86 -106 0 -239 -55 -330 -138 -30 -27 -64 -54 -76
-60 -47 -25 -50 -20 -56 111 -9 163 -26 219 -85 277 -26 25 -83 63 -126 84
-96 48 -135 81 -188 160 -54 80 -95 124 -140 147 -43 22 -72 27 -242 39 -160
11 -189 25 -342 155 -115 99 -233 169 -339 201 -48 15 -95 18 -235 19 -170 0
-178 -1 -277 -33 -56 -17 -138 -48 -183 -67 -106 -45 -184 -65 -258 -65 -59 0
-63 2 -186 85 -205 138 -411 228 -594 260 -100 18 -237 18 -307 1z m385 -49
c322 -84 635 -297 1078 -731 204 -200 389 -404 546 -600 107 -134 270 -356
265 -359 -2 -1 -41 -21 -85 -44 l-81 -42 -124 116 c-539 504 -1004 797 -1505
949 -78 24 -107 27 -234 28 -127 1 -153 -2 -211 -22 -117 -40 -203 -105 -262
-197 l-32 -50 -7 75 c-4 41 -21 143 -37 227 -18 88 -31 183 -31 226 0 213 139
391 345 444 77 20 259 10 375 -20z m1673 -190 c96 -31 192 -88 277 -164 183
-162 256 -193 475 -193 124 0 178 -31 254 -143 69 -102 109 -138 208 -188 48
-24 104 -60 124 -80 52 -52 67 -109 75 -279 4 -80 13 -164 19 -187 14 -46 8
-54 -17 -25 -22 25 -45 71 -74 154 -43 121 -102 223 -170 297 -81 87 -156 138
-253 168 -66 21 -94 24 -219 24 -184 -1 -200 5 -308 125 -43 48 -94 103 -112
121 -153 152 -378 187 -533 84 -24 -16 -69 -63 -99 -103 -46 -61 -66 -79 -120
-105 -36 -18 -70 -33 -75 -33 -6 0 -71 56 -145 125 -74 69 -170 153 -212 188
-42 34 -77 65 -77 70 -1 4 18 7 42 7 55 0 120 19 277 82 188 75 255 88 435 84
128 -3 161 -7 228 -29z m118 -295 c81 -39 129 -80 234 -202 121 -140 143 -150
341 -150 179 0 238 -14 340 -81 123 -80 211 -203 282 -394 16 -44 33 -89 38
-99 6 -16 -3 -12 -41 15 -53 37 -93 88 -132 162 -61 120 -153 179 -279 179
-96 -1 -142 -22 -231 -105 -38 -37 -82 -71 -97 -77 -47 -18 -109 6 -210 82
-103 77 -171 104 -239 93 -64 -11 -146 -53 -193 -100 l-42 -42 -98 113 c-55
62 -150 167 -213 233 -62 67 -107 121 -99 121 8 0 42 14 75 30 48 24 69 43
104 93 53 75 81 102 134 130 65 33 86 37 176 33 70 -3 97 -9 150 -34z m-1716
-256 c115 -29 257 -83 412 -156 334 -158 741 -452 1108 -802 l100 -96 -54 -16
c-30 -9 -74 -16 -98 -16 -41 0 -48 5 -117 74 -95 95 -195 148 -316 165 -80 12
-90 17 -274 128 -431 260 -744 377 -1046 390 -106 4 -148 2 -197 -10 -80 -21
-153 -58 -203 -103 l-40 -36 7 108 c3 60 9 111 13 114 3 3 17 27 29 53 48 99
163 184 301 222 80 22 248 14 375 -19z m1845 -372 c14 -7 61 -40 105 -73 151
-115 216 -115 341 0 90 84 122 99 212 99 120 0 191 -50 258 -183 46 -89 109
-146 242 -218 35 -19 87 -56 116 -84 28 -27 86 -80 128 -117 85 -76 118 -131
118 -199 0 -73 -30 -109 -205 -241 -67 -52 -114 -114 -115 -150 0 -28 19 -21
31 10 15 39 60 83 167 164 51 39 103 86 115 104 27 42 41 42 78 3 39 -42 39
-84 -1 -135 l-31 -38 7 -93 7 -94 -50 -48 c-35 -34 -68 -54 -109 -68 -60 -20
-83 -43 -42 -43 13 0 48 11 79 23 l56 23 0 -42 c0 -42 7 -60 86 -207 51 -95
52 -169 3 -300 -48 -126 -55 -166 -56 -283 0 -115 -17 -186 -62 -257 -37 -57
-115 -130 -183 -168 -90 -51 -174 -159 -211 -273 -24 -73 -61 -145 -101 -193
-72 -90 -272 -203 -358 -203 -50 0 -72 15 -120 80 -21 29 -58 63 -85 78 l-48
27 102 106 c100 103 103 105 136 96 21 -5 51 -4 84 4 77 18 142 90 255 280 99
167 150 227 246 292 128 87 305 219 305 227 0 24 -23 16 -81 -28 -35 -27 -125
-92 -201 -145 -75 -53 -153 -116 -173 -139 -20 -24 -78 -113 -128 -198 -106
-179 -160 -240 -230 -259 -30 -9 -55 -11 -66 -5 -18 8 -13 17 45 94 171 224
232 468 174 696 -25 98 -59 148 -130 188 -50 28 -63 31 -140 31 -76 0 -93 -4
-150 -32 -81 -40 -143 -103 -215 -218 -30 -49 -72 -110 -92 -134 -120 -145
-370 -117 -524 57 -44 51 -115 170 -106 179 4 3 28 -10 54 -29 153 -109 251
-148 371 -148 86 0 154 19 214 58 69 45 108 111 164 278 19 59 47 130 60 156
92 181 296 243 439 134 44 -34 71 -86 90 -176 27 -130 66 -178 148 -187 51 -6
106 18 167 74 44 39 110 125 110 142 0 27 -29 5 -78 -60 -86 -112 -185 -156
-246 -108 -36 28 -53 65 -71 149 -18 88 -44 138 -90 178 -65 57 -92 67 -190
67 -81 0 -95 -3 -143 -29 -64 -36 -132 -107 -165 -172 -13 -27 -39 -94 -57
-149 -46 -139 -81 -206 -136 -254 -83 -73 -219 -92 -351 -49 -98 32 -298 169
-335 228 -15 25 -31 52 -37 60 -8 13 10 15 142 15 102 0 152 4 154 11 3 8 -48
13 -169 17 -143 4 -183 8 -233 26 -53 19 -140 69 -133 77 2 1 59 10 128 19
151 21 200 17 349 -31 266 -84 401 -85 564 -3 113 57 266 234 342 395 28 59
43 69 123 80 115 15 225 -50 337 -198 61 -80 77 -95 120 -111 57 -21 153 -20
180 3 24 20 3 32 -34 19 -40 -14 -122 -6 -159 16 -15 9 -50 48 -77 87 -94 133
-199 205 -313 215 -31 3 -74 1 -95 -5 l-39 -11 7 42 c15 91 46 193 73 241 34
60 116 116 169 116 29 0 33 3 33 25 0 39 -24 89 -66 135 -57 63 -103 82 -216
90 -91 6 -101 9 -150 43 -82 56 -123 70 -198 65 -56 -3 -76 -10 -146 -51 -44
-26 -83 -47 -87 -47 -3 0 -32 37 -64 83 -32 45 -106 144 -165 220 -60 76 -108
142 -108 146 0 13 84 88 120 106 66 34 154 38 210 9z m-2024 5 c240 -33 524
-143 834 -324 192 -111 237 -143 217 -151 -9 -3 -83 -4 -164 -2 -172 4 -189 9
-343 113 -121 81 -191 105 -306 105 -73 0 -102 -6 -191 -36 -123 -43 -149 -42
-298 6 -101 32 -223 41 -292 21 -32 -9 -32 -9 -26 22 21 115 108 198 248 238
70 21 208 24 321 8z m3754 -64 c56 -29 70 -59 70 -149 0 -47 9 -119 21 -174
20 -88 21 -95 5 -135 -17 -45 -137 -190 -222 -267 l-49 -45 -6 60 c-3 33 -9
69 -14 80 -21 50 -77 113 -156 176 -91 73 -131 117 -155 174 -23 56 -19 82 15
88 16 3 57 30 91 59 34 29 80 64 103 78 107 63 235 87 297 55z m333 -118 c63
-37 94 -93 113 -202 11 -65 28 -113 65 -186 50 -101 59 -147 43 -227 -5 -26
-11 -30 -46 -35 -47 -6 -91 -44 -148 -127 -112 -165 -274 -257 -413 -236 -61
9 -76 23 -83 77 -6 41 -3 49 23 80 16 19 33 42 36 53 11 28 -10 89 -38 116
l-24 23 114 119 c75 78 124 138 141 175 27 55 27 56 14 127 -8 39 -14 111 -15
160 l0 89 35 13 c53 20 129 12 183 -19z m-4347 -138 c154 -48 192 -48 317 -5
186 64 305 48 469 -64 171 -116 164 -115 453 -116 228 -2 256 -4 315 -24 36
-12 81 -31 100 -43 72 -44 156 -136 214 -234 4 -7 -17 -1 -46 12 -77 35 -151
48 -248 42 -138 -8 -214 -44 -389 -186 -130 -104 -230 -141 -385 -141 -108 0
-216 28 -336 88 l-94 47 159 6 c161 7 471 51 489 69 22 22 -13 21 -176 -6
-216 -36 -441 -40 -578 -11 -77 17 -230 72 -230 83 0 3 6 17 14 33 26 49 106
112 194 153 48 21 113 51 145 65 31 15 57 33 57 40 0 7 -2 13 -5 13 -2 0 -65
-26 -139 -58 -151 -66 -223 -114 -267 -178 -16 -24 -34 -44 -39 -44 -4 0 -30
18 -58 39 -85 68 -152 164 -185 266 -18 58 -31 160 -22 175 3 5 44 10 89 10
65 0 105 -7 182 -31z m-271 -186 l15 -36 -58 -61 c-136 -143 -192 -321 -192
-615 l0 -114 -42 35 c-24 19 -63 59 -86 88 -48 58 -50 74 -21 167 13 41 12 45
-24 113 -20 39 -37 82 -37 96 0 15 16 43 44 72 64 70 69 83 61 172 -6 67 -4
83 14 118 25 49 68 76 146 92 67 14 105 30 125 56 13 15 16 7 27 -65 7 -44 20
-97 28 -118z m2893 -9 c20 -8 60 -31 89 -51 l52 -36 -37 -27 c-88 -63 -131
-142 -197 -360 -68 -228 -111 -297 -217 -349 -76 -38 -146 -41 -281 -10 -111
25 -187 21 -247 -12 -35 -20 -70 -62 -70 -84 0 -15 30 -2 45 21 21 32 88 63
138 64 20 0 81 -10 135 -21 184 -41 294 -18 386 81 60 65 88 122 142 302 48
161 72 216 123 285 102 140 322 134 409 -10 32 -53 37 -77 14 -77 -33 0 -90
-29 -131 -65 -47 -43 -84 -123 -110 -242 -26 -117 -44 -170 -83 -241 -50 -93
-111 -172 -189 -248 -118 -114 -209 -150 -379 -148 -97 1 -116 5 -250 48 -175
57 -251 65 -395 42 -208 -33 -253 -4 -472 293 -11 15 -4 16 80 17 111 0 157
14 289 89 171 96 214 101 438 55 129 -27 200 -22 272 17 63 34 101 89 102 145
1 24 -4 43 -11 45 -8 3 -13 -5 -13 -21 0 -94 -103 -176 -219 -176 -17 0 -90
12 -163 26 -200 40 -228 36 -416 -62 l-153 -79 -122 0 c-109 0 -128 3 -185 26
-78 33 -158 82 -213 129 l-42 36 80 2 c149 4 254 46 389 155 165 133 238 167
375 175 130 7 251 -34 347 -118 56 -50 81 -39 35 14 -31 35 -93 121 -93 129 0
2 30 7 66 10 57 4 89 16 223 81 86 43 170 84 186 93 17 9 54 29 84 44 61 33
130 38 189 13z m-2834 -108 c36 -62 154 -167 233 -209 60 -31 220 -87 250 -87
6 0 35 -16 64 -36 72 -49 199 -109 279 -130 50 -14 79 -30 125 -70 71 -61 157
-117 223 -145 60 -26 97 -61 187 -179 81 -107 125 -150 188 -181 23 -12 65
-43 94 -69 34 -31 78 -58 123 -76 83 -32 129 -77 155 -150 65 -182 162 -307
289 -369 80 -39 162 -58 215 -49 133 22 199 74 294 229 112 183 206 251 347
249 182 -1 255 -107 254 -369 0 -114 -4 -140 -27 -210 -51 -155 -166 -321
-352 -510 -108 -110 -169 -148 -237 -148 -91 0 -123 51 -115 182 3 47 9 99 13
115 5 22 4 28 -7 24 -22 -7 -41 -77 -43 -158 -1 -101 21 -146 87 -179 44 -21
54 -23 95 -13 26 6 55 14 64 17 20 8 19 -7 -4 -160 -43 -290 -250 -641 -528
-899 -117 -108 -367 -298 -492 -375 -35 -21 -51 -51 -29 -51 12 0 182 115 286
193 404 305 642 608 753 957 28 89 42 160 58 288 5 42 9 52 25 52 23 0 97 -65
130 -115 24 -35 101 -81 117 -71 21 13 78 -42 114 -109 49 -93 69 -109 133
-102 l50 5 0 -401 c0 -445 10 -558 66 -775 74 -290 220 -529 410 -674 81 -62
524 -284 534 -267 10 15 21 11 50 -18 63 -63 81 -164 49 -274 -9 -30 -124
-315 -256 -634 -132 -319 -246 -595 -254 -614 -13 -32 -15 -33 -32 -18 -40 36
-116 60 -207 65 -81 4 -99 1 -185 -27 -161 -54 -353 -183 -430 -289 -73 -101
-131 -108 -290 -32 -96 46 -111 50 -177 50 -88 0 -165 -27 -294 -101 -184
-106 -277 -127 -400 -89 -87 26 -105 35 -314 153 -460 259 -1223 719 -1510
910 -308 205 -524 377 -706 564 -125 127 -159 179 -159 242 0 60 33 94 96 97
27 1 137 24 245 52 107 27 283 64 390 81 606 97 748 133 886 222 154 100 237
239 252 418 l6 76 107 8 c132 9 180 18 186 36 4 11 -6 13 -54 7 -122 -15 -325
-25 -486 -26 -253 0 -361 26 -454 112 -64 58 -94 125 -94 208 0 118 -33 321
-65 402 -6 15 -3 15 32 3 54 -20 101 -18 179 6 80 25 135 51 154 74 24 29 2
27 -62 -4 -35 -17 -93 -39 -130 -48 -57 -15 -73 -16 -110 -5 -24 7 -51 14 -61
16 -33 5 -126 163 -115 196 2 6 19 -1 38 -15 45 -33 87 -32 160 5 67 34 97 36
242 18 101 -12 150 -6 193 26 34 24 8 30 -49 11 -48 -16 -63 -17 -137 -7 -137
19 -186 16 -257 -18 -75 -35 -100 -37 -134 -10 -14 11 -37 24 -52 30 -29 11
-35 35 -10 44 8 3 40 3 69 0 45 -6 58 -3 83 15 43 30 110 27 212 -9 90 -31
165 -40 158 -17 -3 6 -18 13 -34 15 -16 2 -68 16 -116 32 -100 35 -173 39
-221 13 -21 -12 -54 -18 -97 -18 -36 0 -71 -2 -79 -5 -9 -4 -34 39 -81 140
l-68 145 72 12 c39 7 102 12 140 10 44 -1 71 2 73 9 8 24 -103 32 -198 14 -79
-15 -191 -14 -231 3 -44 19 -85 68 -94 114 -4 22 4 111 20 227 35 256 45 349
54 556 13 261 -1 354 -64 437 -36 48 -134 94 -134 63 0 -5 16 -17 35 -26 42
-20 92 -75 112 -123 9 -20 17 -72 20 -116 l5 -80 -40 60 c-22 33 -70 89 -106
125 -85 83 -93 110 -66 211 11 41 31 117 45 169 40 147 56 275 65 530 12 309
34 404 128 547 28 44 93 113 106 113 2 0 16 -20 30 -44z m4835 -282 c81 -92
80 -197 -2 -282 -63 -66 -147 -94 -336 -112 -63 -6 -158 -20 -213 -30 -99 -20
-183 -25 -225 -14 l-22 6 25 33 c14 19 29 46 33 62 6 23 12 27 32 23 13 -3 58
-5 99 -4 142 1 253 70 372 229 87 116 109 135 158 135 33 0 44 -6 79 -46z m75
-347 c17 -36 17 -41 2 -97 l-17 -60 31 -70 c37 -85 34 -100 -31 -175 -27 -31
-52 -68 -55 -83 -11 -45 -14 -45 -49 1 -76 100 -216 167 -348 167 -24 0 -70
-7 -102 -16 -114 -31 -98 -37 -206 75 -55 56 -99 110 -99 120 0 16 7 18 73 13
50 -3 105 2 177 17 58 11 157 25 220 31 170 16 260 43 330 100 34 27 52 22 74
-23z m-680 -383 c18 -4 48 -1 80 9 206 64 402 -14 497 -197 43 -83 36 -104
-44 -129 -69 -22 -105 -61 -141 -154 -32 -85 -71 -127 -155 -166 -108 -51
-241 -49 -322 6 -28 19 -35 32 -46 82 -20 99 -16 146 24 262 59 175 51 240
-53 413 -24 40 -19 37 52 -37 47 -48 91 -84 108 -89z m-138 -661 c20 -84 18
-209 -4 -281 -24 -76 -61 -128 -177 -253 -133 -142 -153 -185 -169 -370 -15
-159 -30 -205 -92 -278 -20 -23 -57 -53 -82 -68 -26 -15 -64 -40 -84 -56 l-38
-29 0 61 c0 60 0 61 75 153 75 94 175 251 175 275 0 20 -18 15 -33 -9 -83
-135 -159 -241 -210 -294 -55 -55 -68 -64 -99 -64 -44 0 -60 15 -97 89 -16 31
-41 67 -55 80 l-26 24 74 32 c93 41 178 99 238 162 50 54 77 101 114 201 51
135 110 213 209 277 75 48 136 102 177 157 42 55 78 158 78 221 0 53 9 42 26
-30z m861 -3107 c124 -40 193 -92 295 -221 125 -158 185 -209 271 -230 49 -13
31 20 -25 43 -29 12 -71 37 -93 56 l-40 34 60 8 c147 20 178 9 241 -89 49 -76
96 -117 137 -117 143 -2 164 -5 204 -32 41 -27 70 -74 84 -138 10 -41 -5 -310
-26 -490 -32 -266 -84 -554 -176 -970 -269 -1220 -556 -1937 -1385 -3467 -90
-166 -164 -304 -164 -307 0 -57 151 206 481 834 437 834 723 1518 909 2175
150 529 305 1254 359 1684 12 91 23 166 24 168 5 4 54 -284 77 -452 60 -435
71 -693 68 -1540 l-3 -720 32 -250 c54 -426 53 -540 -8 -795 -63 -264 -222
-715 -335 -950 -209 -433 -481 -692 -826 -788 -74 -20 -323 -22 -598 -3 -597
40 -963 35 -1210 -15 l-35 -7 68 73 c141 152 252 319 362 545 103 210 163 368
340 892 392 1157 590 1691 938 2528 68 165 149 368 180 450 225 613 273 1121
145 1560 -21 75 -30 91 -46 81 -6 -4 -2 -30 10 -68 75 -242 94 -537 53 -833
-47 -337 -134 -609 -391 -1226 -314 -755 -536 -1352 -850 -2284 -234 -695
-285 -832 -385 -1042 -111 -235 -225 -410 -390 -597 -71 -81 -76 -84 -128 -91
-80 -11 -164 -1 -286 35 -118 35 -242 44 -298 21 -34 -13 -33 -10 33 74 314
404 608 949 852 1580 165 425 271 759 537 1680 183 635 282 960 385 1261 36
105 66 194 66 198 0 3 -6 6 -14 6 -32 0 -201 -530 -495 -1550 -221 -767 -321
-1086 -459 -1455 -257 -689 -532 -1217 -865 -1658 -54 -70 -97 -134 -97 -142
0 -21 -107 -57 -185 -62 -59 -5 -96 1 -225 33 -147 37 -163 39 -315 39 -88 0
-243 -6 -345 -13 -244 -18 -307 -9 -670 95 -86 25 -110 27 -260 27 l-165 0
-235 -64 -235 -65 -175 0 c-106 0 -199 5 -235 13 -236 51 -443 161 -600 317
-186 184 -298 410 -331 665 -20 147 -21 150 -120 368 -173 378 -203 515 -239
1077 -58 922 -49 1228 54 1925 42 280 53 454 41 621 -22 283 -93 533 -227 799
-45 91 -83 168 -83 171 0 13 55 29 135 39 112 14 170 36 285 111 144 94 192
114 275 114 114 0 141 -17 229 -149 94 -139 243 -326 420 -524 402 -450 567
-670 760 -1017 37 -66 166 -318 288 -560 121 -242 268 -528 326 -635 357 -661
750 -1244 1177 -1745 169 -198 380 -425 396 -425 24 0 -2 33 -135 178 -482
525 -885 1080 -1263 1742 -149 261 -237 428 -491 935 -402 800 -487 929 -1032
1546 -239 271 -334 390 -445 557 l-49 73 30 24 c48 39 195 112 253 125 54 13
116 9 185 -10 l39 -12 -30 -17 c-65 -40 -82 -124 -42 -203 39 -77 251 -286
456 -450 330 -264 1043 -712 1922 -1208 202 -114 265 -142 359 -161 113 -24
174 -5 437 133 44 23 100 47 124 55 l44 13 -7 -63 c-15 -143 -18 -417 -7 -547
17 -187 43 -332 60 -338 16 -5 14 12 -14 208 -23 159 -29 404 -16 568 7 79 15
151 18 159 11 28 94 11 186 -38 79 -42 86 -44 169 -44 47 0 85 -2 83 -5 -10
-17 -68 -301 -84 -417 -38 -262 -52 -562 -26 -556 6 2 13 61 17 135 15 285 44
495 105 753 l38 159 58 62 c99 106 314 229 445 255 84 16 178 6 246 -26 30
-14 58 -31 64 -38 7 -8 -16 -71 -77 -212 -170 -389 -236 -515 -451 -860 -176
-283 -235 -388 -316 -565 -113 -248 -207 -494 -400 -1055 -236 -688 -315 -864
-664 -1480 -130 -229 -237 -452 -222 -467 12 -12 22 3 56 82 40 94 129 260
268 503 261 458 374 716 607 1397 187 543 264 745 385 1010 84 182 143 288
316 565 263 421 317 534 720 1505 374 901 362 868 367 970 5 79 3 89 -23 139
-39 73 -87 110 -155 120 -36 5 -114 37 -233 95 -174 83 -212 108 -130 83 70
-21 301 -13 454 17 182 35 353 32 477 -8z m-6957 -686 c56 -96 114 -225 156
-345 134 -384 148 -671 59 -1245 -88 -574 -96 -937 -40 -1850 8 -135 18 -263
21 -285 3 -28 -7 -10 -36 65 -52 136 -142 314 -188 375 -23 30 -57 59 -87 74
l-49 26 -286 0 c-234 -1 -295 -3 -340 -17 -30 -9 -56 -15 -57 -14 -1 1 7 44
18 96 38 180 23 590 -36 951 -75 456 -195 856 -384 1284 -84 189 -152 305
-224 381 -70 75 -72 70 47 148 296 196 775 360 1186 405 52 6 109 13 125 15
74 8 72 9 115 -64z m8396 -349 c258 -129 580 -317 756 -441 223 -157 351 -320
399 -508 l19 -76 -41 -150 c-191 -707 -393 -1351 -513 -1645 -58 -142 -173
-370 -228 -452 -82 -122 -169 -146 -340 -92 -93 29 -98 34 -98 103 0 19 -14
145 -32 280 l-32 245 -1 840 c0 720 -3 866 -18 1020 -31 322 -76 631 -127 880
-22 109 -24 125 -11 125 4 0 125 -58 267 -129z m-9899 -163 c86 -95 157 -223
268 -483 251 -590 395 -1264 395 -1846 0 -133 -5 -193 -21 -272 -11 -55 -23
-105 -26 -110 -10 -16 -33 30 -97 195 -284 728 -475 1486 -576 2283 -23 181
-24 228 -10 256 15 27 22 24 67 -23z"/>
<path d="M6412 14098 c3 -8 33 -16 75 -19 221 -20 649 -249 1012 -541 83 -68
126 -97 133 -90 12 12 -18 40 -166 156 -360 281 -804 506 -999 506 -42 0 -58
-3 -55 -12z"/>
<path d="M7050 12990 c-53 -46 -137 -94 -197 -109 -23 -6 -95 -18 -160 -27
-134 -17 -232 -45 -271 -79 -43 -37 -17 -41 50 -7 47 24 90 36 168 47 202 28
242 37 310 71 66 33 170 116 170 135 0 19 -26 7 -70 -31z"/>
<path d="M8975 12893 c-46 -24 -75 -54 -100 -103 -23 -45 -27 -62 -65 -263
-35 -184 -101 -318 -215 -433 -78 -80 -155 -123 -228 -129 -27 -2 -42 -8 -42
-16 0 -10 14 -14 49 -12 128 4 295 150 386 336 54 112 70 168 100 341 31 180
80 251 183 266 22 3 42 11 45 18 6 18 -76 15 -113 -5z"/>
<path d="M6185 11744 c-64 -10 -189 -46 -226 -64 -21 -11 -50 -36 -66 -57
l-28 -36 -3 -305 c-2 -245 0 -303 10 -300 10 4 14 71 18 299 6 331 6 331 80
369 87 44 204 64 375 64 211 0 362 -30 612 -119 67 -24 101 -31 108 -24 15 15
-3 23 -163 74 -229 74 -341 95 -527 100 -88 2 -173 1 -190 -1z"/>
<path d="M8830 11566 c-91 -24 -186 -110 -240 -217 -37 -72 -45 -117 -26 -149
51 -86 59 -108 52 -146 -5 -24 -20 -50 -42 -70 -58 -55 -40 -76 20 -24 63 56
72 143 22 216 -15 22 -26 53 -26 72 0 71 94 203 189 264 34 21 57 28 95 28 82
-1 122 -47 134 -152 4 -34 12 -63 17 -63 15 0 18 78 5 127 -14 48 -77 118
-108 118 -11 0 -26 2 -34 4 -7 3 -33 -1 -58 -8z"/>
<path d="M6371 11542 c-37 -20 -73 -76 -69 -106 5 -33 25 -29 32 7 3 19 18 45
32 58 21 20 36 24 87 24 55 0 76 -7 192 -62 148 -70 252 -113 273 -113 34 0
-1 28 -74 58 -43 18 -133 58 -199 90 -139 66 -213 78 -274 44z"/>
<path d="M6424 11437 c-27 -24 -29 -30 -30 -105 l-1 -80 78 -26 c109 -36 164
-34 269 10 47 19 105 38 129 42 60 9 62 27 4 41 -26 7 -103 40 -171 73 -103
52 -132 63 -185 66 -56 4 -67 1 -93 -21z m270 -75 c131 -68 131 -62 10 -108
-79 -29 -122 -30 -208 -4 -61 19 -66 23 -66 49 0 16 -3 42 -6 59 -5 23 -1 35
16 52 20 20 30 22 80 17 45 -4 84 -18 174 -65z"/>
<path d="M6450 11174 c0 -36 152 -71 219 -49 44 14 15 28 -52 26 -49 -2 -78 3
-113 18 -56 25 -54 25 -54 5z"/>
<path d="M6152 10599 c3 -8 22 -16 44 -19 22 -3 51 -15 66 -25 41 -31 89 -109
95 -153 5 -36 2 -45 -25 -72 -41 -40 -80 -42 -170 -9 -59 21 -152 25 -170 7
-34 -34 -1 -68 68 -68 51 0 51 23 -1 28 -19 2 -38 8 -43 13 -20 18 80 8 157
-16 80 -26 106 -25 159 2 65 32 74 125 22 210 -43 69 -93 105 -155 111 -41 4
-51 2 -47 -9z"/>
<path d="M8870 9488 c1 -24 5 -104 10 -178 13 -182 13 -718 0 -921 -20 -317
-60 -637 -115 -928 -14 -77 -20 -130 -14 -135 15 -16 20 -2 40 101 121 624
161 1332 113 2006 -5 71 -11 97 -20 97 -10 0 -14 -13 -14 -42z"/>
<path d="M4300 7670 c0 -6 29 -48 64 -94 128 -168 196 -304 372 -748 171 -431
285 -703 412 -983 172 -378 190 -415 207 -415 8 0 15 2 15 4 0 2 -40 88 -89
192 -152 324 -295 658 -477 1117 -97 243 -203 494 -234 558 -56 111 -173 294
-224 352 -25 27 -46 35 -46 17z"/>
<path d="M4297 7303 c11 -250 8 -728 -6 -918 -17 -221 -47 -477 -82 -688 -16
-98 -27 -183 -24 -188 15 -23 23 0 43 114 82 473 119 960 108 1422 -8 351 -15
435 -33 435 -12 0 -13 -28 -6 -177z"/>
<path d="M5330 7372 c0 -5 48 -46 108 -92 125 -98 365 -330 496 -480 229 -260
389 -480 823 -1126 380 -565 419 -621 576 -828 316 -414 634 -729 954 -943 62
-41 117 -72 123 -68 16 10 6 19 -108 96 -337 227 -658 549 -993 999 -142 190
-270 376 -559 810 -425 638 -612 887 -901 1200 -115 124 -277 273 -416 383
-66 52 -103 70 -103 49z"/>
<path d="M6905 6071 c-12 -20 259 -318 437 -479 262 -237 569 -463 841 -618
87 -49 121 -64 130 -55 13 13 20 9 -93 71 -209 117 -410 254 -640 438 -151
121 -504 464 -600 585 -54 67 -64 75 -75 58z"/>
<path d="M5140 2686 c0 -47 147 -336 264 -520 114 -178 356 -476 387 -476 22
0 2 28 -96 142 -105 122 -224 283 -303 411 -51 80 -168 307 -204 395 -25 57
-48 81 -48 48z"/>
<path d="M5620 2358 c0 -21 111 -157 187 -228 98 -92 222 -175 237 -159 8 8 6
14 -8 23 -125 75 -279 216 -350 319 -37 53 -66 73 -66 45z"/>
</g>
</svg>
